<?xml version="1.0" encoding="utf-8"?>
<!-- Generator: Adobe Illustrator 18.0.0, SVG Export Plug-In . SVG Version: 6.00 Build 0)  -->
<!DOCTYPE svg PUBLIC "-//W3C//DTD SVG 1.1//EN" "http://www.w3.org/Graphics/SVG/1.1/DTD/svg11.dtd">
<svg version="1.1" id="Layer_1" xmlns="http://www.w3.org/2000/svg" xmlns:xlink="http://www.w3.org/1999/xlink" x="0px" y="0px"
	 viewBox="0 0 200 300" enable-background="new 0 0 200 300" xml:space="preserve">
<g id="Layer_3">
	<g>
		<g>
			<path fill="#995524" d="M118.1,246.3h-36c-28.1,0-50.9-22.8-50.9-50.9V97.9H169v97.5C169,223.5,146.2,246.3,118.1,246.3z"/>
		</g>
		<g>
			<path fill="#7C468A" d="M105.4,219.6H94.8c-32.2,0-58.3,26.1-58.3,58.3v5.3h127.2v-5.3C163.7,245.7,137.6,219.6,105.4,219.6z"/>
		</g>
		<g>
			<path fill="#EFE4E3" d="M110.7,230.2V209H89.5v21.2c0,5.9,4.7,10.6,10.6,10.6l0,0C105.9,240.8,110.7,236.1,110.7,230.2z"/>
		</g>
		<g>
			<path fill="#9F5FA6" d="M89.5,219.8v10.4c0,5.9,4.7,10.6,10.6,10.6c2.9,0,5.6-1.2,7.5-3.1c2-2,3.1-4.6,3.1-7.5v-10.4
				c3.6,0.3,7.2,1,10.6,2v8.4c0,11.7-9.5,21.2-21.2,21.2s-21.2-9.5-21.2-21.2v-8.4C82.3,220.8,85.8,220.2,89.5,219.8z"/>
		</g>
		<g>
			<path fill="#BFB9B9" d="M110.7,213.2v-8H89.5v8c0,4.4,3.5,7.9,7.9,7.9h5.4C107.1,221.1,110.7,217.6,110.7,213.2z"/>
		</g>
		<g>
			<polyline fill="#BFB9B9" points="46.1,133 56.5,133 56.5,154.2 			"/>
		</g>
		<g>
			<path fill="#EFE4E3" d="M100.1,213.2L100.1,213.2c-32.2,0-58.3-26.1-58.3-58.3V64.8h116.6v90.1
				C158.4,187.1,132.3,213.2,100.1,213.2z"/>
		</g>
		<path fill="#70421A" d="M162.7,58.7c-3.8-6.9-9.1-12.8-15.6-17.3c-2.6-1.8-5.4-3.4-8.4-4.7h-16.3v44h16.3h19.7v68.2H169V83.2
			C169,74.3,166.7,65.9,162.7,58.7z"/>
		<g>
			<path fill="#995524" d="M138.7,36.7c-0.9,16.5-6.8,31.6-16.3,44c-14.5,18.9-37.4,31.2-63.1,31.2c-6,0-11.9-0.7-17.5-2V149H31.2
				V83.2c0-8.9,2.3-17.3,6.3-24.5c3.8-6.9,9.1-12.8,15.6-17.3c8.2-5.7,18.2-9.1,29-9.1h36C125.4,32.3,132.4,33.9,138.7,36.7z"/>
		</g>
		<g>
			<rect x="121.1" y="108.1" fill="#424143" width="21.2" height="4"/>
		</g>
		<g>
			<circle fill="#36383E" cx="126.7" cy="135.6" r="5.6"/>
		</g>
		<g>
			<rect x="57.7" y="118.7" fill="#424143" width="21.2" height="4"/>
		</g>
		<g>
			<circle fill="#36383E" cx="73.3" cy="135.6" r="5.6"/>
		</g>
		<g>
			<path fill="#424143" d="M100.1,156.2v-4c4.8,0,8.6-3.9,8.6-8.6V133h4v10.6C112.7,150.5,107,156.2,100.1,156.2z"/>
		</g>
		<g>
			<path fill="#EFE4E3" d="M36.5,154.2h10.6V133H36.5c-5.9,0-10.6,4.7-10.6,10.6l0,0C25.9,149.4,30.6,154.2,36.5,154.2z"/>
		</g>
		<g>
			<path fill="#EFE4E3" d="M163.5,154.2h-10.4V133h10.4c5.9,0,10.6,4.7,10.6,10.6l0,0C174.1,149.4,169.4,154.2,163.5,154.2z"/>
		</g>
		<g>
			<path fill="#424143" d="M100.1,188.7c-6.9,0-12.6-5.6-12.6-12.6h4c0,4.7,3.9,8.6,8.6,8.6V188.7z"/>
		</g>
	</g>
</g>
</svg>
