<?xml version="1.0" encoding="utf-8"?>
<!-- Generator: Adobe Illustrator 18.0.0, SVG Export Plug-In . SVG Version: 6.00 Build 0)  -->
<!DOCTYPE svg PUBLIC "-//W3C//DTD SVG 1.1//EN" "http://www.w3.org/Graphics/SVG/1.1/DTD/svg11.dtd">
<svg version="1.1" id="Layer_1" xmlns="http://www.w3.org/2000/svg" xmlns:xlink="http://www.w3.org/1999/xlink" x="0px" y="0px"
	 viewBox="0 0 200 300" enable-background="new 0 0 200 300" xml:space="preserve">
<g id="Layer_1_1_" display="none">
	<g display="inline">
		<g>
			<path fill="#9F5FA6" d="M105.9,219.6H94.3c-35.2,0-63.7,28.5-63.7,63.7l0,0h139l0,0C169.6,248.2,141.1,219.6,105.9,219.6z"/>
		</g>
		<g>
			<g>
				<path fill="#EFE4E3" d="M110.7,230.5v-21.2H89.5v21.2c0,5.9,4.7,10.6,10.6,10.6l0,0C105.9,241.1,110.7,236.3,110.7,230.5z"/>
			</g>
			<g>
				<path fill="#EFE4E3" d="M107.5,213.4H92.7c-28.1,0-50.9-22.8-50.9-50.9V65h116.6v97.5C158.4,190.6,135.6,213.4,107.5,213.4z"/>
			</g>
			<g>
				<path fill="#EFE4E3" d="M31.2,154.4h10.6v-21.2H31.2c-5.9,0-10.6,4.7-10.6,10.6l0,0C20.6,149.6,25.3,154.4,31.2,154.4z"/>
			</g>
			<g>
				<path fill="#EFE4E3" d="M168.8,154.4h-10.4v-21.2h10.4c5.9,0,10.6,4.7,10.6,10.6l0,0C179.4,149.6,174.7,154.4,168.8,154.4z"/>
			</g>
		</g>
		<g>
			<path fill="#BFB9B9" d="M110.7,211.4v-8H89.5v8c0,4.4,3.5,7.9,7.9,7.9h5.4C107.1,219.4,110.7,215.8,110.7,211.4z"/>
		</g>
		<g>
			<path fill="#BC7229" d="M169,16.6v116.6h-10.6V65h-15.1C158.8,54.5,169,36.8,169,16.6z"/>
		</g>
		<g>
			<path fill="#C9822A" d="M169,16.6c0,20.1-10.2,37.9-25.7,48.3c-9.3,6.3-20.5,10-32.6,10s-23.3-3.7-32.6-10H41.8v68.3H31.2V67.5
				c0-17.3,8.6-32.6,21.9-41.8c8.2-5.7,18.2-9.1,29-9.1H169z"/>
		</g>
		<g>
			<rect x="121.1" y="103" fill="#424143" width="21.2" height="4"/>
		</g>
		<g>
			<circle fill="#36383E" cx="126.7" cy="125.2" r="5.6"/>
		</g>
		<g>
			<rect x="57.7" y="92.4" fill="#424143" width="21.2" height="4"/>
		</g>
		<g>
			<circle fill="#36383E" cx="73.3" cy="125.2" r="5.6"/>
		</g>
		<g>
			<path fill="#424143" d="M100.1,145.8c-6.9,0-12.6-5.6-12.6-12.6h4c0,4.7,3.9,8.6,8.6,8.6c4.8,0,8.6-3.9,8.6-8.6v-10.6h4v10.6
				C112.7,140.1,107,145.8,100.1,145.8z"/>
		</g>
		<g>
			<path fill="#7C468A" d="M89.5,220.1v10.4c0,5.9,4.7,10.6,10.6,10.6c2.9,0,5.6-1.2,7.5-3.1c2-2,3.1-4.6,3.1-7.5v-10.4
				c3.6,0.3,7.2,1,10.6,2v8.4c0,11.7-9.5,21.2-21.2,21.2s-21.2-9.5-21.2-21.2V222C82.3,221,85.8,220.4,89.5,220.1z"/>
		</g>
		<g>
			<path fill="#DF9B59" d="M158.4,162.5c0,28.1-22.8,50.9-50.9,50.9H92.7c-28.1,0-50.9-22.7-50.9-50.9h23.4c6.1,0,12.1-1.7,16.8-5.5
				c3.7-3,10.4-5,18-5c5.9,0,11.2,1.2,15,3.1c1.1,0.6,2.2,1.2,3,1.9c4.7,3.8,10.8,5.6,16.9,5.6h23.5V162.5z"/>
		</g>
		<g>
			<path fill="#424143" d="M100.1,188.9v-4c4.8,0,8.6-3.9,8.6-8.6h4C112.7,183.3,107,188.9,100.1,188.9z"/>
		</g>
	</g>
</g>
<g id="Layer_2">
	<g>
		<g>
			<path fill="#4C2F16" d="M118.1,246.5h-36c-28.1,0-50.9-22.8-50.9-50.9V98.1H169v97.5C169,223.7,146.2,246.5,118.1,246.5z"/>
		</g>
		<g>
			<path fill="#159CAA" d="M105.4,219.8H94.8c-32.2,0-58.3,26.1-58.3,58.3v5.3h127.2v-5.3C163.7,245.9,137.6,219.8,105.4,219.8z"/>
		</g>
		<g>
			<path fill="#EFE4E3" d="M110.7,230.5v-21.2H89.5v21.2c0,5.9,4.7,10.6,10.6,10.6l0,0C105.9,241.1,110.7,236.3,110.7,230.5z"/>
		</g>
		<g>
			<path fill="#02858C" d="M89.5,220.1v10.4c0,5.9,4.7,10.6,10.6,10.6c2.9,0,5.6-1.2,7.5-3.1c2-2,3.1-4.6,3.1-7.5v-10.4
				c3.6,0.3,7.2,1,10.6,2v8.4c0,11.7-9.5,21.2-21.2,21.2s-21.2-9.5-21.2-21.2V222C82.3,221,85.8,220.4,89.5,220.1z"/>
		</g>
		<g>
			<path fill="#BFB9B9" d="M110.7,213.4v-8H89.5v8c0,4.4,3.5,7.9,7.9,7.9h5.4C107.1,221.3,110.7,217.8,110.7,213.4z"/>
		</g>
		<g>
			<path fill="#EFE4E3" d="M100.1,213.4L100.1,213.4c-32.2,0-58.3-26.1-58.3-58.3V65h116.6v90.1
				C158.4,187.3,132.3,213.4,100.1,213.4z"/>
		</g>
		<path fill="#5B3716" d="M61.5,36.9c-3,1.3-5.8,2.9-8.4,4.7C46.6,46,41.3,52,37.5,58.9c-4,7.2-6.3,15.6-6.3,24.5v65.7h10.6V80.9
			h19.7h16.3v-44H61.5z"/>
		<g>
			<circle fill="#36383E" cx="126.7" cy="135.8" r="5.6"/>
		</g>
		<g>
			<circle fill="#36383E" cx="73.3" cy="135.8" r="5.6"/>
		</g>
		<g>
			<path fill="#424143" d="M100.1,156.4v-4c4.8,0,8.6-3.9,8.6-8.6v-10.6h4v10.6C112.7,150.7,107,156.4,100.1,156.4z"/>
		</g>
		<g>
			<path fill="#EFE4E3" d="M36.5,154.4h10.6v-21.2H36.5c-5.9,0-10.6,4.7-10.6,10.6l0,0C25.9,149.6,30.6,154.4,36.5,154.4z"/>
		</g>
		<g>
			<path fill="#424143" d="M100.1,188.9c-6.9,0-12.6-5.6-12.6-12.6h4c0,4.7,3.9,8.6,8.6,8.6c4.8,0,8.6-3.9,8.6-8.6h4
				C112.7,183.3,107,188.9,100.1,188.9z"/>
		</g>
		<g>
			<path fill="#424143" d="M81,121.4h-4c0-4.7-3.9-8.6-8.6-8.6c-4.8,0-8.6,3.9-8.6,8.6h-4c0-6.9,5.6-12.6,12.6-12.6
				C75.3,108.8,81,114.5,81,121.4z"/>
		</g>
		<g>
			<path fill="#424143" d="M144.4,121.4h-4c0-4.7-3.9-8.6-8.6-8.6c-4.8,0-8.6,3.9-8.6,8.6h-4c0-6.9,5.6-12.6,12.6-12.6
				C138.7,108.8,144.4,114.5,144.4,121.4z"/>
		</g>
		<path fill="#4C2F16" d="M61.5,36.9c0,0,0,31.5,16.3,44c15.9,12.2,33,1.6,45.7,12.1s12.2,22.4,34.9,17.1v31.3H169V83.3
			c0-28-22.7-50.7-50.7-50.7H82.1C82.1,32.5,71.6,31.9,61.5,36.9z"/>
		<g>
			<path fill="#EFE4E3" d="M163.5,154.4h-10.4v-21.2h10.4c5.9,0,10.6,4.7,10.6,10.6l0,0C174.1,149.6,169.4,154.4,163.5,154.4z"/>
		</g>
	</g>
</g>
<g id="Layer_3" display="none">
	<g display="inline">
		<g>
			<path fill="#995524" d="M118.1,246.3h-36c-28.1,0-50.9-22.8-50.9-50.9V97.9H169v97.5C169,223.5,146.2,246.3,118.1,246.3z"/>
		</g>
		<g>
			<path fill="#7C468A" d="M105.4,219.6H94.8c-32.2,0-58.3,26.1-58.3,58.3v5.3h127.2v-5.3C163.7,245.7,137.6,219.6,105.4,219.6z"/>
		</g>
		<g>
			<path fill="#EFE4E3" d="M110.7,230.2V209H89.5v21.2c0,5.9,4.7,10.6,10.6,10.6l0,0C105.9,240.8,110.7,236.1,110.7,230.2z"/>
		</g>
		<g>
			<path fill="#9F5FA6" d="M89.5,219.8v10.4c0,5.9,4.7,10.6,10.6,10.6c2.9,0,5.6-1.2,7.5-3.1c2-2,3.1-4.6,3.1-7.5v-10.4
				c3.6,0.3,7.2,1,10.6,2v8.4c0,11.7-9.5,21.2-21.2,21.2s-21.2-9.5-21.2-21.2v-8.4C82.3,220.8,85.8,220.2,89.5,219.8z"/>
		</g>
		<g>
			<path fill="#BFB9B9" d="M110.7,213.2v-8H89.5v8c0,4.4,3.5,7.9,7.9,7.9h5.4C107.1,221.1,110.7,217.6,110.7,213.2z"/>
		</g>
		<g>
			<polyline fill="#BFB9B9" points="46.1,133 56.5,133 56.5,154.2 			"/>
		</g>
		<g>
			<path fill="#EFE4E3" d="M100.1,213.2L100.1,213.2c-32.2,0-58.3-26.1-58.3-58.3V64.8h116.6v90.1
				C158.4,187.1,132.3,213.2,100.1,213.2z"/>
		</g>
		<g>
			<path fill="#995524" d="M138.7,36.7c-0.9,16.5-6.8,31.6-16.3,44c-14.5,18.9-37.4,31.2-63.1,31.2c-6,0-11.9-0.7-17.5-2V149H31.2
				V83.2c0-8.9,2.3-17.3,6.3-24.5c3.8-6.9,9.1-12.8,15.6-17.3c8.2-5.7,18.2-9.1,29-9.1h36C125.4,32.3,132.4,33.9,138.7,36.7z"/>
		</g>
		<g>
			<path fill="#70421A" d="M169,83.2v65.7h-10.6V80.7h-36c9.4-12.3,15.4-27.5,16.3-44c3,1.3,5.8,2.9,8.4,4.7
				c6.5,4.5,11.8,10.4,15.6,17.3C166.7,65.9,169,74.3,169,83.2z"/>
		</g>
		<g>
			<rect x="121.1" y="108.1" fill="#424143" width="21.2" height="4"/>
		</g>
		<g>
			<circle fill="#36383E" cx="126.7" cy="135.6" r="5.6"/>
		</g>
		<g>
			<rect x="57.7" y="118.7" fill="#424143" width="21.2" height="4"/>
		</g>
		<g>
			<circle fill="#36383E" cx="73.3" cy="135.6" r="5.6"/>
		</g>
		<g>
			<path fill="#424143" d="M100.1,156.2v-4c4.8,0,8.6-3.9,8.6-8.6V133h4v10.6C112.7,150.5,107,156.2,100.1,156.2z"/>
		</g>
		<g>
			<path fill="#EFE4E3" d="M36.5,154.2h10.6V133H36.5c-5.9,0-10.6,4.7-10.6,10.6l0,0C25.9,149.4,30.6,154.2,36.5,154.2z"/>
		</g>
		<g>
			<path fill="#EFE4E3" d="M163.5,154.2h-10.4V133h10.4c5.9,0,10.6,4.7,10.6,10.6l0,0C174.1,149.4,169.4,154.2,163.5,154.2z"/>
		</g>
		<g>
			<path fill="#424143" d="M100.1,188.7c-6.9,0-12.6-5.6-12.6-12.6h4c0,4.7,3.9,8.6,8.6,8.6V188.7z"/>
		</g>
	</g>
</g>
<g id="Layer_4" display="none">
	<g display="inline">
		<g>
			<path fill="#2075BC" d="M105.4,219.8H94.8c-32.2,0-58.3,26.1-58.3,58.3v5.3h127.2v-5.3C163.7,245.9,137.6,219.8,105.4,219.8z"/>
		</g>
		<g>
			<path fill="#EFE4E3" d="M110.7,230.5v-21.2H89.5v21.2c0,5.9,4.7,10.6,10.6,10.6l0,0C105.9,241.1,110.7,236.3,110.7,230.5z"/>
		</g>
		<g>
			<path fill="#2B3C90" d="M89.5,220.1v10.4c0,5.9,4.7,10.6,10.6,10.6c2.9,0,5.6-1.2,7.5-3.1c2-2,3.1-4.6,3.1-7.5v-10.4
				c3.6,0.3,7.2,1,10.6,2v8.4c0,11.7-9.5,21.2-21.2,21.2s-21.2-9.5-21.2-21.2V222C82.3,221,85.8,220.4,89.5,220.1z"/>
		</g>
		<g>
			<path fill="#BFB9B9" d="M110.7,213.4v-8H89.5v8c0,4.4,3.5,7.9,7.9,7.9h5.4C107.1,221.3,110.7,217.8,110.7,213.4z"/>
		</g>
		<g>
			<path fill="#EFE4E3" d="M107.5,213.4H92.7c-28.1,0-50.9-22.8-50.9-50.9V65h116.6v97.5C158.4,190.6,135.6,213.4,107.5,213.4z"/>
		</g>
		<g>
			<path fill="#EFE4E3" d="M31.2,154.4h10.6v-21.2H31.2c-5.9,0-10.6,4.7-10.6,10.6l0,0C20.6,149.6,25.3,154.4,31.2,154.4z"/>
		</g>
		<g>
			<path fill="#EFE4E3" d="M168.8,154.4h-10.4v-21.2h10.4c5.9,0,10.6,4.7,10.6,10.6l0,0C179.4,149.6,174.7,154.4,168.8,154.4z"/>
		</g>
		<g>
			<path fill="#010101" d="M169,16.6v116.6h-10.6V65h-15.1C158.8,54.5,169,36.8,169,16.6z"/>
		</g>
		<g>
			<path fill="#231F20" d="M169,16.6c0,20.1-10.2,37.9-25.7,48.3c-9.3,6.3-20.5,10-32.6,10s-23.3-3.7-32.6-10H41.8v68.3H31.2V67.5
				c0-17.3,8.6-32.6,21.9-41.8c8.2-5.7,18.2-9.1,29-9.1H169z"/>
		</g>
		<g>
			<rect x="121.1" y="92.4" fill="#424143" width="21.2" height="4"/>
		</g>
		<g>
			<circle fill="#36383E" cx="126.7" cy="135.8" r="5.6"/>
		</g>
		<g>
			<rect x="57.7" y="92.4" fill="#424143" width="21.2" height="4"/>
		</g>
		<g>
			<circle fill="#36383E" cx="73.3" cy="135.8" r="5.6"/>
		</g>
		<g>
			<path fill="#424143" d="M100.1,161.7c-6.9,0-12.6-5.6-12.6-12.6h4c0,4.7,3.9,8.6,8.6,8.6c4.8,0,8.6-3.9,8.6-8.6v-21.2h4v21.2
				C112.7,156,107,161.7,100.1,161.7z"/>
		</g>
		<g>
			<path fill="#424143" d="M100.1,188.9c-6.9,0-12.6-5.6-12.6-12.6h4c0,4.7,3.9,8.6,8.6,8.6c4.8,0,8.6-3.9,8.6-8.6h4
				C112.7,183.3,107,188.9,100.1,188.9z"/>
		</g>
		<g>
			<path fill="#424143" d="M75.9,151.1H55.3c-8.6,0-15.5-7-15.5-15.5v-20.1h51.7v20.1C91.5,144.1,84.5,151.1,75.9,151.1z
				 M43.8,119.4v16.2c0,6.4,5.2,11.5,11.6,11.5H76c6.4,0,11.5-5.2,11.5-11.5v-16.2C87.5,119.4,43.8,119.4,43.8,119.4z"/>
		</g>
		<g>
			<path fill="#424143" d="M144.8,151.1h-20.6c-8.6,0-15.5-7-15.5-15.5v-20.1h51.7v20.1C160.4,144.1,153.4,151.1,144.8,151.1z
				 M112.7,119.4v16.2c0,6.4,5.2,11.5,11.6,11.5h20.6c6.4,0,11.5-5.2,11.5-11.5v-16.2C156.4,119.4,112.7,119.4,112.7,119.4z"/>
		</g>
		<g>
			<rect x="89.5" y="115.4" fill="#424143" width="21.2" height="4"/>
		</g>
	</g>
</g>
<g id="Layer_5" display="none">
</g>
</svg>
