<?xml version="1.0" encoding="utf-8"?>
<!-- Generator: Adobe Illustrator 18.0.0, SVG Export Plug-In . SVG Version: 6.00 Build 0)  -->
<!DOCTYPE svg PUBLIC "-//W3C//DTD SVG 1.1//EN" "http://www.w3.org/Graphics/SVG/1.1/DTD/svg11.dtd">
<svg version="1.1" id="Layer_1" xmlns="http://www.w3.org/2000/svg" xmlns:xlink="http://www.w3.org/1999/xlink" x="0px" y="0px"
	 viewBox="0 0 636.7 681.4" enable-background="new 0 0 636.7 681.4" xml:space="preserve">
<g>
	<path fill="#15646D" d="M313.4,438.6c-17.8,3.2-31.9,18.2-48.7,11.4c-4.1-1.6-3.8-7.5,0.4-8.6c22.3-6,52.9-14.1,70.4-18.8
		c6.1-1.6,11.5,4.1,9.7,10.1L273.9,661c-1.2,3.9,2,7.7,6,7.2c20.4-2.4,41.4-4.9,63.2-7.4c4.3-0.5,8,3.4,7.1,7.7
		c-1.5,7-5.7,9-14.9,8.7c-20.5-0.6-41.1,2.2-61.7,3.7c-2,0.1-4.1,0.3-6.1,0.5c-5.1,0.5-9.1-4.3-7.7-9.3
		c21.3-74.8,42.3-148.6,63.4-222.8C324.8,443.2,319.6,437.5,313.4,438.6z"/>
	<path fill="#15646D" d="M156.3,453.7c-13.4,7.3-25.1,13.8-37,20.3c-4.3,2.4-9.9-0.6-9.8-5.6c0-3.4,2.7-6,8.9-8.5
		c24.3-10.1,47.8-22.3,71.7-33.6c6-2.8,12-6.6,19-6.3c6.8,0.3,8.5,9.8,2.2,12.5c-2.9,1.3-5.7,2.3-8.6,2.9
		c-16.4,3.3-23.2,10.4-21.1,28.9c5.4,48.9,8.6,98,12.5,147c0.8,10.5,0.2,21.1,1.4,31.6c0.3,2.4,0.3,4.5,0,6.3
		c-1.1,8.1-13,7.6-13.7-0.5c-5-62.5-10.1-124.7-15.3-189.7C166,454.2,160.6,451.3,156.3,453.7z"/>
	<path fill="#15646D" d="M35.3,500.2c4.6-2.2,9.1,3.2,6.2,7.3C19.9,539,10.6,570,18.8,608c4,18.5,10.5,30.3,24.7,40.4
		c7.3,5.2,13.3,5.9,19-1.6c6-7.9,11.9-15.9,17.6-24c0,0,0-0.1,0.1-0.1c2.8-4,9-1.9,8.8,3c-1.1,22.7-23.6,40.9-48.5,38.1
		c-19.1-2.1-27.7-14.5-32.4-29.8c-10.8-35.3-11.4-71,2.1-105.8C15,515.9,22.8,506.3,35.3,500.2z"/>
	<path fill="#15646D" d="M387.4,442.9c-2.8,0.1-5.2,2-6.1,4.6c-1.5,4.4-3,8.8-3.7,13.3c-6.3,38.6-12.2,77.3-18.4,115.9
		c-4.2,26.5-4.4,26.5,21.6,31.9c5.2,1.1,10.5,2.1,15.7,2.2c1.1,0,2.1-0.5,3.4-1.2c2.6-1.5,2.1-5.4-0.8-6.3
		c-9.7-2.8-17.6-5.1-24.8-7.2c1.4-18.9,2.8-35.7,3.7-52.6c0.7-11.9,5-18.5,18.4-17c4.7,0.5,9.7,0.8,14.6,0.6
		c2.5-0.1,4.3-2.3,4.2-4.7v0c-0.1-1.5-1.3-2.6-2.8-2.6h-26.2c-2.4,0-4.3-2.2-3.9-4.6c0.9-6.2,0.6-11.3,1.7-16.2
		c6-28.1,15.9-40.7,43.4-45.1c2.4-0.4,3.9-0.3,5.8-0.9c4.3-1.3,6.7-5.9,5.3-10.2c0,0,0-0.1,0-0.1c-0.4-1.2-1.5-1.9-2.7-1.9
		L387.4,442.9z"/>
	<path fill="#15646D" d="M503.3,75.7c0.5-6.1,0.6-8.2,0.8-10.3c2.5-27,9.8-51.7,38.1-62.4c24.8-9.4,68.3,4.4,85.3,25.5
		c14.3,17.7,11.2,62.4-5,85.6c-20.3,29.2-70.1,36.4-99.6,13.9C504.8,114.1,504.8,92.3,503.3,75.7z M511.2,70.5
		c-3.3,48.2,31.5,75.2,76.6,59.1c30.1-10.7,46.1-45.6,38.1-82.8c-3.9-18.3-21-33.6-39.8-35.3c-6.8-0.6-13.7,0-20.5-0.5
		c-30-2.2-40.7,4.6-49.6,33.2C513.3,52.5,512.7,61.7,511.2,70.5z"/>
	<path fill="#15646D" d="M108.9,632.8c-3.6-42.2-7-82.5-10.5-123.4c-0.4-5,3.6-9.4,8.6-9.4h0c3.2,0,5.9,2.2,6.6,5.3
		c7.3,34.8,9.1,96.2,3.8,127.9C116.6,638.2,109.4,637.8,108.9,632.8z"/>
	<path fill="#15646D" d="M223.8,609.7c-0.5-0.2-0.8-0.6-0.8-1.2c-1.2-43.1-2.6-86.1-3.1-129.2c0-4.1,3.7-8.2,6.6-12.4
		c1-1.5,2.8-2.1,4.5-1.7l0,0c2,0.6,3.5,2.5,3.5,4.6c-0.1,11.1-0.3,22.2,0.1,33.3c1.2,29.6,3.4,59.2,3.8,88.8
		c0.1,4.8-2.9,9.6-5.6,14.5C230.9,609.5,227.2,610.9,223.8,609.7L223.8,609.7z"/>
	<path fill="#15646D" d="M564.9,58.9c7.2-8.6,9.4-19.9,19.4-26.2c3.4-2.1,7.4,1.5,5.8,5.1c-2.6,6.1-4.7,11-7.9,15
		c-5.9,7.5-9.1,20-9.1,20s5.9,12.3,10.8,18c5.4,6.3,8.9,14.2,13,21.6c0.9,1.6,0.4,3.6-1.2,4.7c0,0,0,0-0.1,0
		c-1.6,1.1-3.7,0.7-4.9-0.9c-6.9-9.5-13.9-19-21.1-28.8c-0.9-1.3-2.8-1.3-3.8-0.1c-7.3,9-10.2,19.6-17.4,29.5
		c-3.3,4.5-10.4,2.4-10.5-3.2c-0.2-7,5.3-13.8,9-19.6c4.3-6.7,11.2-19.9,11.2-19.9s-8.1-12.6-15.9-19.5c-7.8-6.9-7.7-8.5-2.7-16.4
		c0.8-1.3,2.7-1.5,3.7-0.3c6,6.9,11.7,13.7,17.9,20.8C562.2,60.1,563.9,60.1,564.9,58.9z"/>
	<path fill="#15646D" d="M450,554.8c-3.5,25.6-7.2,51.2-10.5,76.9c-0.8,5.9-2.9,11.2-9.2,10.6c-9.6-0.9-3.8-7.8-3.3-12.1
		c5.7-45,14.7-89.6,16.1-135.2c0.2-6.3,0.6-17.4,6.8-18.5c8.8-1.5,7.5,10.3,9.3,15.6c7.1,20.7,12,42.2,18.7,67.1
		c18.9-28.8,34.1-55.3,47.4-82.9c5.7-11.8,10.8-24,15.8-36.1c1.7-4.1,3-9,8.4-6.8c4,1.7,2.9,6.9,1.4,10
		c-16.4,33.5-24.5,70.7-46.2,101.9c-6.9,9.9-13.3,20.4-18.8,31.1c-3.1,6-7,8.3-13.2,8.8c-7.2,0.6-8.9-4.9-10.8-9.6
		c-2.7-6.8-4.5-14-6.8-21C453.5,552.1,451.7,552,450,554.8z"/>
	<g>
		<defs>
			<path id="SVGID_1_" d="M96.9,177.6c0.3-1.9,3-2,3.5-0.2c10.2,42.1,20.7,83.7,26.9,126.3c3.2,21.9,6,43.8,9.7,65.6
				c0.5,3,1.3,9.7,7.2,8.4c6-1.4,3.3-7.1,2.8-10.7c-4.6-30.8-6.3-62.1-13.1-92.6c-8.7-38.5-13.6-74.9-24.8-115.9
				c-1.4-5.6-2.4-11.3-4.3-16.7c-1.5-4.2-2.3-10.3-8.4-9.9c-5.9,0.4-5.1,5.6-6.2,9.1c-14.4,45.7-19.1,93.9-20.4,141.6
				c-0.8,5.2-3.8,2.7-5.7,0c-5.1-13.2-10.1-26.6-15.4-39.7c-2.3-5.6-2.9-14.7-10.3-14c-8.5,0.8-7,10.5-8.3,16.8
				c-1.6,7.7-2.2,15.7-3,23.6c-5.5,59-12.4,117.9-11.3,177.3c0.1,4.1-1,9.5,4.5,10.5c6.8,1.2,6-6,8.2-9.6c1.2-2.1,0.7-5.2,0.9-7.8
				c2.2-37.5,4.3-75,6.7-112.6c1.3-20.4,3.2-40.7,4.8-61c7.7,14.7,13,29.5,18.6,44.2c2.5,6.6,4.3,7.7,8.2,7.3
				c5.3-0.6,7.4-3.4,9.4-8.2c1-2.4,1.4-5.1,1.8-7.7L96.9,177.6z"/>
		</defs>
		<use xlink:href="#SVGID_1_"  overflow="visible" fill="#15646D"/>
		<clipPath id="SVGID_2_">
			<use xlink:href="#SVGID_1_"  overflow="visible"/>
		</clipPath>
	</g>
	<path fill="#15646D" d="M216.2,284.3c-2-29.9-1.6-60.3-12.1-89.1c-3.5-17.2-6.1-34.7-19.2-48c-14.9-9-30.7-3.2-34.8,13.6
		c-1.7,7.1-2,14.7-2.1,22.1c-0.3,42.5,6.4,84.5,11.9,126.4c2,15.7,6.6,31,14.7,44.9c8.3,14.1,22.5,14.6,31.6,1.2
		c3.5-5.2,6.1-10.9,7.6-17.2C217.8,320.2,217.3,302.1,216.2,284.3z M197.7,221.5c5.5,27.2,5.3,54.7,4.6,82.3
		c-0.3,14.6-4.7,28.3-10.5,42.2c-3-2.8-3.5-4.9-3.9-6.9c-10.9-48.1-15.8-97.1-20.6-146.1c-0.8-8.3-0.5-16.9,2.8-24.6
		c2.6-6.1,11.3-5.7,13.5,0.5c3.8,10.7,7.8,21.4,11.1,32.3L197.7,221.5z"/>
	<path fill="#15646D" d="M269.1,410.6c-7.1,2.9-15.2-1.4-16.9-8.9c-0.3-1.1-0.5-2.3-0.6-3.4c-7.2-70.5-14.1-141-21.3-211.5
		c-3.5-34-1.5-36.9,32.2-34.1c14.7,1.2,30,2.6,43.6,7.8c26.6,10.2,42.1,31.1,46.9,59.3c9.6,56.4,4.3,109.6-35.4,154.7
		C304.1,389.8,288.9,402.6,269.1,410.6z M269.1,387.4c0.6,4.6,6,6.8,9.6,3.9c9.1-7.5,17.9-14.2,24.3-22.7
		c30.5-40.6,43.5-86.6,36.3-137.5c-5.8-40.9-48.7-73.1-88.3-69.2c-5.5,0.5-9.3,5.6-8.7,11C251.1,243.3,259.9,313.8,269.1,387.4z"/>
	<path fill="#15646D" d="M416.6,310.3h-29.9c-2,17.5-4.5,35-5.9,52.6c-0.6,7.9-3,11.6-8.2,10.9c-3.1-0.4-5.3-3.5-4.8-6.6
		c9.4-65.2,18.8-130.1,28.1-195.1c0.3-2.2,1.6-4.1,3.5-5.2c0,0,0,0,0,0c0.5-0.3,1.1-0.2,1.4,0.3c3.1,4.3,7.7,8.3,8.4,12.9
		c4.4,28.2,7.6,56.7,11.5,85c5.8,42.5,11.4,85,18.2,127.3c1.3,8.3-0.5,11.9-6.6,13.6c-2.9,0.8-5.9-1.2-6.2-4.2
		C423,371.4,419.8,341,416.6,310.3z M413.9,295.4c-3.7-27.6-7.1-53.5-10.5-79.4c-0.9,0.1-1.9,0.2-2.8,0.3c-3.6,26-7.2,52-11,79.2
		C398.1,295.4,404.6,295.4,413.9,295.4z"/>
	<g>
		<defs>
			<path id="SVGID_3_" d="M449,162c9.6,72.4,15.7,145.3,23.2,219.4c23.2-16.4,34.8-43.8,58.1-60.9c4.9-3.6,11.3,2.1,8.3,7.3
				c-13.3,23.1-42.8,53.5-63.9,66.9c-5.9,3.7-13.6,0.1-14.4-6.8c-7.6-69.6-15.2-139.2-22.3-208.9c-0.6-6.2,1.4-12.8,2.6-19.2
				c0.3-1.4,1.4-2.4,2.8-2.5c0,0,0,0,0.1,0C446.2,157.2,448.6,159.2,449,162z"/>
		</defs>
		<use xlink:href="#SVGID_3_"  overflow="visible" fill="#15646D"/>
		<clipPath id="SVGID_4_">
			<use xlink:href="#SVGID_3_"  overflow="visible"/>
		</clipPath>
	</g>
</g>
</svg>
