<?xml version="1.0" encoding="utf-8"?>
<!-- Generator: Adobe Illustrator 18.0.0, SVG Export Plug-In . SVG Version: 6.00 Build 0)  -->
<!DOCTYPE svg PUBLIC "-//W3C//DTD SVG 1.1//EN" "http://www.w3.org/Graphics/SVG/1.1/DTD/svg11.dtd">
<svg version="1.1" id="Layer_1" xmlns="http://www.w3.org/2000/svg" xmlns:xlink="http://www.w3.org/1999/xlink" x="0px" y="0px"
	 viewBox="0 0 931 359.5" enable-background="new 0 0 931 359.5" xml:space="preserve">
<g>
	<path fill="#FFFFFF" d="M694.4,131.8c-13.4,2.4-24.1,13.7-36.8,8.6c-3.1-1.2-2.9-5.7,0.3-6.5c16.8-4.5,39.9-10.7,53.2-14.2
		c4.6-1.2,8.7,3.1,7.3,7.6l-53.9,160.4c-0.9,2.9,1.5,5.8,4.5,5.5c15.4-1.8,31.3-3.7,47.7-5.6c3.3-0.4,6,2.5,5.4,5.8
		c-1.1,5.3-4.3,6.8-11.3,6.5c-15.5-0.5-31.1,1.7-46.6,2.8c-1.5,0.1-3.1,0.3-4.6,0.4c-3.9,0.4-6.9-3.3-5.8-7
		c16.1-56.5,31.9-100.2,47.8-156.3C703,135.3,699.1,130.9,694.4,131.8z"/>
	<path fill="#FFFFFF" d="M585.5,143.2c-10.1,5.5-19,10.4-27.9,15.3c-3.3,1.8-7.5-0.5-7.4-4.2c0-2.6,2-4.5,6.7-6.4
		c18.4-7.7,36.1-16.9,54.2-25.3c4.5-2.1,9.1-5,14.3-4.7c5.1,0.2,6.4,7.4,1.7,9.5c-2.2,1-4.3,1.8-6.5,2.2c-12.4,2.5-17.5,7.9-16,21.9
		c4.1,36.9,6.5,74,9.4,111c0.6,7.9,0.2,16,1,23.8c0.2,1.8,0.2,3.4,0,4.8c-0.8,6.1-9.8,5.8-10.3-0.4c-3.8-47.2-7.6-94.1-11.6-143.2
		C592.8,143.6,588.8,141.4,585.5,143.2z"/>
	<path fill="#FFFFFF" d="M491.3,145.3c4.4-2.1,8.7,3,6,7c-20.7,30.1-29.6,59.7-21.7,96.1c3.8,17.6,10,29,23.6,38.6
		c7,5,12.8,5.6,18.2-1.5c5.7-7.5,11.4-15.2,16.9-22.9c0,0,0-0.1,0.1-0.1c2.7-3.8,8.6-1.8,8.4,2.9c-1.1,21.7-22.6,39.1-46.4,36.5
		c-18.3-2-26.5-13.9-31-28.5c-10.3-33.7-10.9-67.9,2-101.2C471.8,160.3,479.3,151.1,491.3,145.3z"/>
	<path fill="#FFFFFF" d="M730.2,145.9c-2.1,0.1-3.9,1.5-4.6,3.5c-1.1,3.3-2.2,6.6-2.8,10.1c-4.7,29.2-9.2,58.4-13.9,87.5
		c-3.2,20-3.3,20,16.3,24.1c3.9,0.8,7.9,1.6,11.9,1.6c0.8,0,1.6-0.3,2.6-0.9c2-1.1,1.6-4.1-0.6-4.7c-7.3-2.1-13.3-3.8-18.7-5.4
		c1-14.3,2.1-27,2.8-39.7c0.5-9,3.8-14,13.9-12.8c3.6,0.4,7.3,0.6,11,0.4c1.9-0.1,3.3-1.7,3.2-3.6l0,0c-0.1-1.1-1-2-2.1-2h-19.8
		c-1.8,0-3.2-1.6-3-3.5c0.7-4.6,0.5-8.5,1.3-12.2c4.5-21.2,12-30.7,32.7-34.1c1.8-0.3,3-0.3,4.4-0.7c3.2-1,5-4.5,4-7.7
		c0,0,0,0,0-0.1c-0.3-0.9-1.1-1.5-2-1.4L730.2,145.9z"/>
	<path fill="#FFFFFF" d="M554.7,278.4c-2.7-31.8-5.3-62.3-7.9-93.2c-0.3-3.8,2.7-7.1,6.5-7.1l0,0c2.4,0,4.5,1.7,5,4
		c5.5,26.3,6.9,72.6,2.8,96.5C560.5,282.5,555.1,282.2,554.7,278.4z"/>
	<path fill="#FFFFFF" d="M636.4,261c-0.4-0.1-0.6-0.5-0.6-0.9c-0.9-32.5-2-65-2.3-97.5c0-3.1,2.8-6.2,5-9.4c0.8-1.1,2.1-1.6,3.4-1.2
		l0,0c1.5,0.4,2.6,1.9,2.6,3.5c0,8.4-0.3,16.8,0.1,25.1c0.9,22.4,2.5,44.7,2.8,67c0,3.6-2.2,7.3-4.3,10.9
		C641.8,260.8,639,261.9,636.4,261L636.4,261z"/>
	<g>
		<path fill="#FFFFFF" d="M830.3,57.1c0.4-4.6,0.5-6.2,0.6-7.8c1.9-20.4,7.4-39,28.8-47.1c18.8-7.1,51.6,3.4,64.4,19.3
			c10.8,13.4,8.5,47.1-3.7,64.7c-15.3,22-53,27.5-75.2,10.5C831.5,86.1,831.4,69.7,830.3,57.1z M836.3,53.2
			c-2.5,36.4,23.8,56.8,57.9,44.6c22.7-8.1,34.8-34.4,28.7-62.5c-3-13.8-15.9-25.4-30.1-26.7c-5.1-0.5-10.3,0-15.5-0.4
			c-22.6-1.7-30.7,3.4-37.5,25.1C837.8,39.7,837.4,46.6,836.3,53.2z"/>
		<path fill="#FFFFFF" d="M876.8,44.5c5.5-6.5,7.1-15,14.6-19.7c2.5-1.6,5.6,1.1,4.4,3.9c-2,4.6-3.5,8.3-5.9,11.4
			c-4.5,5.7-6.9,15.1-6.9,15.1s4.4,9.3,8.1,13.6c4.1,4.7,6.7,10.7,9.8,16.3c0.7,1.2,0.3,2.7-0.9,3.5c0,0,0,0,0,0
			c-1.2,0.8-2.8,0.5-3.7-0.6c-5.2-7.2-10.5-14.3-15.9-21.7c-0.7-1-2.1-1-2.9,0c-5.5,6.8-7.7,14.8-13.1,22.2c-2.5,3.4-7.9,1.8-8-2.4
			c-0.1-5.2,4-10.4,6.8-14.8c3.2-5,8.4-15,8.4-15s-6.1-9.5-12-14.7c-5.9-5.2-5.8-6.4-2-12.4c0.6-1,2.1-1.1,2.8-0.2
			c4.5,5.2,8.9,10.3,13.5,15.7C874.8,45.4,876.1,45.4,876.8,44.5z"/>
	</g>
	<path fill="#FFFFFF" d="M787.2,219.5c-2.7,19.3-5.4,38.7-8,58.1c-0.6,4.5-2.2,8.5-6.9,8c-7.3-0.6-2.9-5.9-2.5-9.1
		c4.3-34,11.1-67.7,12.2-102.1c0.1-4.8,0.5-13.1,5.2-13.9c6.6-1.1,5.7,7.8,7,11.8c5.3,15.7,12,57.2,17,76
		c14.3-21.7,22.8-67.1,32.9-87.9c4.3-8.9,1.6-2.2,5.4-11.4c1.3-3.1,2.3-6.8,6.3-5.1c3,1.3,2.2,5.2,1.1,7.5
		c-12.3,25.3-20.9,67.9-20.9,67.9s-12.6,35.9-16.8,44c-2.3,4.5-5.3,6.3-10,6.7c-5.4,0.4-6.7-3.7-8.1-7.3c-2-5.2-8.3-37.9-9.9-43.2
		C789.9,217.5,788.6,217.4,787.2,219.5z"/>
	<g>
		<defs>
			<path id="SVGID_1_" d="M59.3,179.7c0.2-1.4,2.2-1.5,2.5-0.1c7.4,30.7,15.1,60.9,19.6,91.9c2.3,15.9,4.4,31.9,7.1,47.8
				c0.4,2.2,1,7.1,5.2,6.1c4.4-1,2.4-5.1,2-7.8c-3.4-22.5-4.6-45.2-9.6-67.4c-6.3-28.1-9.9-54.5-18.1-84.4c-1-4.1-1.8-8.2-3.2-12.2
				c-1.1-3-1.6-7.5-6.1-7.2c-4.3,0.3-3.7,4.1-4.5,6.6c-10.4,33.2-13.9,68.3-14.8,103.1c-0.6,3.8-2.8,1.9-4.1,0
				c-3.7-9.6-7.4-19.3-11.2-28.9c-1.6-4.1-2.1-10.7-7.5-10.2c-6.2,0.6-5.1,7.7-6.1,12.2c-1.2,5.6-1.6,11.4-2.2,17.2
				c-4,43-9.1,62-8.2,105.3c0.1,3-0.7,7,3.3,7.7c5,0.9,4.4-4.4,6-7c0.9-1.5,0.5-3.8,0.6-5.7c1.6-27.3,3.1-30.8,4.9-58.2
				c0.9-14.8,2.3-29.6,3.5-44.4c5.6,10.7,9.5,21.5,13.6,32.2c1.8,4.8,3.1,5.6,6,5.3c3.9-0.4,5.4-2.5,6.8-6c0.7-1.7,1-3.7,1.3-5.6
				L59.3,179.7z"/>
		</defs>
		<use xlink:href="#SVGID_1_"  overflow="visible" fill="#FFFFFF"/>
		<clipPath id="SVGID_2_">
			<use xlink:href="#SVGID_1_"  overflow="visible"/>
		</clipPath>
	</g>
	<path fill="#FFFFFF" d="M150,264.6c-1.5-22.6-1.2-45.6-9.2-67.3c-2.6-13-4.6-26.2-14.5-36.2c-11.2-6.8-23.2-2.4-26.3,10.2
		c-1.3,5.4-1.5,11.1-1.6,16.7c-0.3,32.1,4.8,63.8,9,95.5c1.5,11.8,5,23.4,11.1,33.9c6.3,10.6,17,11,23.9,0.9c2.7-3.9,4.6-8.2,5.7-13
		C151.3,291.8,150.9,278.1,150,264.6z M136.1,217.2c4.2,20.5,4,41.3,3.5,62.1c-0.2,11.1-3.6,21.3-7.9,31.9c-2.3-2.1-2.6-3.7-3-5.2
		c-8.2-36.3-11.9-73.3-15.5-110.3c-0.6-6.3-0.4-12.8,2.1-18.6c1.9-4.6,8.5-4.3,10.2,0.4c2.9,8.1,5.9,16.2,8.4,24.4L136.1,217.2z"/>
	<path fill="#FFFFFF" d="M190,335.6c-5.4,2.2-11.5-1.1-12.8-6.7c-0.2-0.9-0.3-1.7-0.4-2.6c-5.5-53.2-10.6-106.5-16.1-159.7
		c-2.6-25.7-1.1-27.9,24.3-25.8c11.1,0.9,22.7,1.9,32.9,5.9c20.1,7.7,31.8,23.5,35.4,44.8c7.3,42.6,3.3,82.8-26.7,116.8
		C216.5,319.8,204.9,329.5,190,335.6z M190,318.1c0.4,3.5,4.6,5.2,7.3,2.9c6.9-5.6,13.5-10.7,18.4-17.1
		c23-30.7,32.9-65.4,27.4-103.8c-4.4-30.9-36.8-55.2-66.7-52.3c-4.1,0.4-7.1,4.2-6.5,8.3C176.4,209.2,183.1,262.5,190,318.1z"/>
	<path fill="#FFFFFF" d="M301.4,259.8h-22.6c-1.5,13.2-3.4,26.4-4.5,39.7c-0.5,6-2.2,8.8-6.2,8.2c-2.4-0.3-4-2.6-3.6-5
		c7.1-49.2,14.2-98.3,21.2-147.3c0.2-1.6,1.2-3.1,2.6-3.9c0,0,0,0,0,0c0.4-0.2,0.8-0.1,1.1,0.2c2.4,3.2,5.8,6.3,6.4,9.8
		c3.3,21.3,5.8,42.8,8.7,64.2c4.4,32.1,8.6,64.2,13.8,96.1c1,6.3-0.4,9-5,10.2c-2.2,0.6-4.5-0.9-4.7-3.2
		C306.2,305.9,303.8,283,301.4,259.8z M299.3,248.6c-2.8-20.8-5.4-40.4-7.9-60c-0.7,0.1-1.4,0.1-2.1,0.2
		c-2.7,19.6-5.5,39.2-8.3,59.8C287.4,248.6,292.4,248.6,299.3,248.6z"/>
	<g>
		<defs>
			<path id="SVGID_3_" d="M325.8,147.8c7.2,54.7,11.8,109.7,17.5,165.7c17.5-12.4,26.3-33.1,43.9-46c3.7-2.7,8.5,1.6,6.2,5.5
				c-10.1,17.4-32.3,40.4-48.3,50.5c-4.4,2.8-10.3,0.1-10.8-5.2c-5.7-52.6-11.5-105.1-16.9-157.7c-0.5-4.7,1-9.6,2-14.5
				c0.2-1.1,1.1-1.8,2.2-1.9c0,0,0,0,0.1,0C323.7,144.2,325.5,145.8,325.8,147.8z"/>
		</defs>
		<use xlink:href="#SVGID_3_"  overflow="visible" fill="#FFFFFF"/>
		<clipPath id="SVGID_4_">
			<use xlink:href="#SVGID_3_"  overflow="visible"/>
		</clipPath>
	</g>
</g>
</svg>
